<svg xmlns="http://www.w3.org/2000/svg" viewBox="0 0 120.41 90.02"><defs><style>.cls-1{fill:#fff;}</style></defs><title>Ativo 1</title><g id="Camada_2" data-name="Camada 2"><g id="Isolation_Mode" data-name="Isolation Mode"><path class="cls-1" d="M120.14,78.55c-1.67-2.42-4.83-8.51-4.83-25.52,0,0,.21-8.84.06-16.75s.26-21.86-13.28-31.52C97.07,1.18,90.12,0,85.26,0A25.89,25.89,0,0,0,68.14,6.69,22.53,22.53,0,0,0,51.72,0C33.66,0,25.93,7.52,1,14.58a1.3,1.3,0,0,0-.85,1.78c1.13,2.55,3.26,8.9,3.26,20.23,0,0-.42,17.9.39,25.54C5.3,76.75,14.62,87.64,29.25,89.38a.87.87,0,0,0,.56-1.61c-4-2.5-9.88-7.79-9.88-17.16,0-6.76,2-16.54,21.24-23.4L53,42.87C65.23,39,70.45,32.75,72.29,25.71a.41.41,0,0,0-.2-.47,7.92,7.92,0,0,1-3.86-7.09c0-7.94,7.73-14,17.18-13C95.5,6.19,98.75,13.8,98.75,19c0,9-3.21,18.44-21.7,24L65.67,46.75C50.61,51.53,45.61,60.82,45.61,68.94,45.61,82.6,58.71,90,70.33,90c14,0,21.73-6.36,26.83-11.37a.87.87,0,0,1,1.38.24,10.74,10.74,0,0,0,3.23,3.84c3.91,2.89,9.5,2.33,13.54.42a27.69,27.69,0,0,0,4.51-2.63A1.39,1.39,0,0,0,120.14,78.55ZM22.7,51.66a.43.43,0,0,1-.7-.3,101.48,101.48,0,0,1,0-16.52c1.5-16.73,7.85-27.48,18.88-28.3,9.1-.68,12.43,7.77,12.43,11.74C53.35,37.43,33,43.42,22.7,51.66Zm74.44,3.73C95.64,72,89.33,82.72,78.35,83.54,69.3,84.22,66,75.81,66,71.86c0-19,20.3-25,30.49-33.21a.43.43,0,0,1,.7.3A100.49,100.49,0,0,1,97.14,55.39Z"/></g></g></svg>