<svg xmlns="http://www.w3.org/2000/svg" viewBox="0 0 819.51 90.02"><title>Ativo 1</title><g id="Camada_2" data-name="Camada 2"><g id="Layer_1" data-name="Layer 1"><path d="M120.14,78.55c-1.67-2.42-4.83-8.51-4.83-25.52,0,0,.21-8.84.06-16.75s.26-21.86-13.28-31.52C97.07,1.18,90.12,0,85.26,0A25.89,25.89,0,0,0,68.14,6.69,22.53,22.53,0,0,0,51.72,0C33.66,0,25.93,7.52,1,14.58a1.3,1.3,0,0,0-.85,1.78c1.13,2.55,3.26,8.9,3.26,20.23,0,0-.42,17.9.39,25.54C5.3,76.75,14.62,87.64,29.25,89.38a.87.87,0,0,0,.56-1.61c-4-2.5-9.88-7.79-9.88-17.16,0-6.76,2-16.54,21.24-23.4L53,42.87C65.23,39,70.45,32.75,72.29,25.71a.41.41,0,0,0-.2-.47,7.92,7.92,0,0,1-3.86-7.09c0-7.94,7.73-14,17.18-13C95.5,6.19,98.75,13.8,98.75,19c0,9-3.21,18.44-21.7,24L65.67,46.75C50.61,51.53,45.61,60.82,45.61,68.94,45.61,82.6,58.71,90,70.33,90c14,0,21.73-6.36,26.83-11.37a.87.87,0,0,1,1.38.24,10.74,10.74,0,0,0,3.23,3.84c3.91,2.89,9.5,2.33,13.54.42a27.69,27.69,0,0,0,4.51-2.63A1.39,1.39,0,0,0,120.14,78.55ZM22.7,51.66a.43.43,0,0,1-.7-.3,101.48,101.48,0,0,1,0-16.52c1.5-16.73,7.85-27.48,18.88-28.3,9.1-.68,12.43,7.77,12.43,11.74C53.35,37.43,33,43.42,22.7,51.66Zm74.44,3.73C95.64,72,89.33,82.72,78.35,83.54,69.3,84.22,66,75.81,66,71.86c0-19,20.3-25,30.49-33.21a.43.43,0,0,1,.7.3A100.49,100.49,0,0,1,97.14,55.39Z"/><path d="M186.17,9.65H167.83v70h6.11V50.48h12.23c15.19,0,24.26-7.69,24.26-20.42C210.43,17.05,201.36,9.65,186.17,9.65Zm0,35.21H173.94V15.17h12.23c11.94,0,17.85,5.33,17.85,14.89S198.11,44.86,186.17,44.86Z"/><path d="M284.7,79.67h6.41l10.15-21.4h34.33l10.25,21.4h6.41L318.43,8.86ZM304,52.45l14.4-30.28,14.39,30.28Z"/><polygon points="399.89 9.65 350.48 9.65 350.48 15.47 372.08 15.47 372.08 79.67 378.19 79.67 378.19 15.47 399.89 15.47 399.89 9.65"/><path d="M398,79.67h6.41l10.16-21.4h34.32l10.26,21.4h6.41L431.73,8.86Zm19.33-27.22,14.4-30.28,14.4,30.28Z"/><path d="M271.45,28.88c0-12-8.38-19.23-22.78-19.23H230.13v70h6.11V48l14.52-.08,19.43,31.74h6.41L256.7,47.2C266.09,44.9,271.45,38.28,271.45,28.88ZM236.24,42.39v-27h12.23c11.15,0,16.57,4.83,16.57,13.51s-5.42,13.51-16.57,13.51Z"/><path d="M583.32,79.67h6.41l10.16-21.4h34.32l10.26,21.4h6.41L617.05,8.86Zm19.33-27.22,14.4-30.28,14.4,30.28Z"/><polygon points="720.19 15.47 740.01 15.47 740.01 79.67 746.13 79.67 746.13 15.47 766.05 15.47 766.05 9.65 720.19 9.65 720.19 15.47"/><polygon points="819.51 15.47 819.51 9.65 780.26 9.65 780.26 79.67 819.51 79.67 819.51 73.86 786.37 73.86 786.37 46.53 811.82 46.53 811.82 40.62 786.37 40.62 786.37 15.47 819.51 15.47"/><polygon points="504.81 79.67 544.07 79.67 544.07 73.86 510.93 73.86 510.93 46.53 536.37 46.53 536.37 40.62 510.93 40.62 510.93 15.47 544.07 15.47 544.07 9.65 504.81 9.65 504.81 79.67"/><path d="M706.61,28.88c0-12-8.38-19.23-22.78-19.23H665.29v70h6.11V48l14.52-.08,19.43,31.74h6.41L691.86,47.2C701.26,44.9,706.61,38.28,706.61,28.88ZM671.4,42.39v-27h12.23c11.15,0,16.57,4.83,16.57,13.51s-5.42,13.51-16.57,13.51Z"/></g></g></svg>