<?xml version="1.0" standalone="no"?>
<!DOCTYPE svg PUBLIC "-//W3C//DTD SVG 20010904//EN"
 "http://www.w3.org/TR/2001/REC-SVG-20010904/DTD/svg10.dtd">
<svg version="1.0" xmlns="http://www.w3.org/2000/svg"
 width="300.000000pt" height="300.000000pt" viewBox="0 0 300.000000 300.000000"
 preserveAspectRatio="xMidYMid meet">
<metadata>
Created by potrace 1.11, written by Peter Selinger 2001-2013
</metadata>
<g transform="translate(0.000000,300.000000) scale(0.100000,-0.100000)"
fill="#000000" stroke="none">
<path d="M1080 2553 c-41 -6 -84 -14 -95 -17 -47 -10 -211 -59 -225 -67 -33
-18 -452 -170 -560 -203 -63 -19 -128 -39 -144 -45 -32 -13 -32 -7 7 -136 39
-127 40 -136 52 -755 2 -135 7 -260 10 -278 11 -71 38 -160 69 -227 102 -218
274 -342 538 -389 33 -6 48 22 21 41 -140 100 -213 206 -229 333 -28 214 53
382 241 502 98 63 169 94 426 186 123 44 245 89 271 101 130 56 248 162 298
267 38 78 37 92 -1 129 -87 82 -80 227 16 333 90 100 250 143 405 108 91 -20
176 -85 220 -167 76 -142 38 -371 -82 -500 -103 -110 -191 -155 -518 -262
-140 -46 -277 -94 -305 -107 -215 -98 -343 -267 -349 -460 -5 -136 38 -241
139 -342 111 -111 260 -168 450 -173 245 -7 413 52 607 212 59 49 79 61 87 51
55 -68 80 -92 114 -109 58 -30 128 -38 202 -24 70 13 181 63 210 95 18 20 18
22 -13 83 -17 34 -40 96 -51 137 -20 72 -24 96 -36 225 -4 33 -8 231 -10 440
-1 209 -6 396 -10 415 -44 227 -140 385 -305 499 -224 154 -554 159 -769 11
l-68 -47 -39 33 c-129 109 -331 147 -574 107z m86 -162 c51 -23 107 -80 136
-140 17 -34 23 -66 25 -122 2 -100 -9 -148 -58 -246 -68 -136 -176 -231 -442
-391 -84 -50 -174 -107 -202 -126 l-50 -36 -6 27 c-3 16 -6 96 -6 178 -2 472
128 778 362 854 99 33 169 33 241 2z m1240 -979 c-4 -192 -9 -244 -43 -387
-65 -278 -229 -446 -438 -448 -271 -2 -372 316 -186 586 61 89 187 197 327
281 27 17 87 53 134 81 47 28 110 68 140 88 52 35 55 36 62 17 4 -12 6 -110 4
-218z"/>
</g>
</svg>
