<svg xmlns="http://www.w3.org/2000/svg" viewBox="0 0 215.4 160.83"><title>Ativo 3</title><g id="Camada_2" data-name="Camada 2"><g id="Layer_1" data-name="Layer 1"><path d="M207.63,74.67c-13.49.15-183-.18-196.2-.18l0,0-3.71,0c-3.49,0-6,1-7.7,4v57.77c.2.6.44,1.19.59,1.8a36.27,36.27,0,0,0,1.66,5.07l.12.29c.14.33.28.64.43,1l.12.25a28.21,28.21,0,0,0,20.82,15.75c.25,0,.47.27.7.42H191c1.24-.36,2.47-.71,3.7-1.09,10.76-3.35,17.37-10.58,20.07-21.47.15-.61.39-1.2.59-1.8V78.7C213.67,75.62,211.12,74.63,207.63,74.67ZM204,130.87c0,11.66-7,18.63-18.71,18.63H29.56c-7.9,0-13.78-3.69-16.49-9.84v0c-.27-.62-.51-1.27-.73-1.94l-.09-.32c-.05-.16-.09-.33-.14-.49a22,22,0,0,1-.69-5.7c0-14.63,0-29.27,0-44.19,0-.27,0-.55.05-.83H203.85c.05,1,.13,1.89.13,2.8Q204,109.93,204,130.87Z"/><path d="M186.19,126.85c-4.9,0-9.8,0-14.69,0s-10,0-15,0c-3.81,0-6.36,2.39-6.31,5.73s2.52,5.57,6.17,5.58q15,.06,30,0c3.81,0,6.36-2.39,6.32-5.73S190.07,126.88,186.19,126.85Z"/><path d="M130.42,126.86a5.65,5.65,0,1,0,5.59,5.56A5.72,5.72,0,0,0,130.42,126.86Z"/><path d="M0,86.1H133.73c5.34,0,8.08-2,8-5.77s-2.73-5.56-7.93-5.56H11.48c0-15.61,0-30.8,0-46,0-10.13,7.38-17.44,17.59-17.44q78.3,0,156.6,0c11.36,0,18.35,7,18.38,18.37,0,14.16,0,28.32,0,42.48,0,.81-.11,1.62-.17,2.58-5.41,0-10.59,0-15.78,0-4.1,0-6.69,2.25-6.67,5.68s2.6,5.62,6.73,5.63c6.51,0,13-.14,19.54.07,3.49.11,6-.94,7.7-4V24.36c-1.18-3.25-2-6.7-3.62-9.7A27.64,27.64,0,0,0,192.86.59C192.24.45,191.65.2,191,0H24.51c-1.61.47-3.23.9-4.82,1.42A28.41,28.41,0,0,0,.14,28.71C.11,43,0,86.1,0,86.1Z"/><path d="M166.57,80.58A5.65,5.65,0,1,0,161,86.17,5.71,5.71,0,0,0,166.57,80.58Z"/></g></g></svg>