<svg xmlns="http://www.w3.org/2000/svg" viewBox="0 0 290.91 291.13"><title>Ativo 2</title><g id="Camada_2" data-name="Camada 2"><g id="Layer_1" data-name="Layer 1"><path d="M283.22,205c-13.5.15-183-.18-196.21-.18l0,0-3.71,0c-3.49,0-6,.95-7.7,4v57.78c.2.6.44,1.19.59,1.8a36.27,36.27,0,0,0,1.66,5.07l.12.29c.14.32.28.64.43,1l.12.25A28.24,28.24,0,0,0,99.32,290.7c.25,0,.47.28.7.43H266.55c1.24-.37,2.47-.72,3.7-1.1,10.76-3.35,17.37-10.58,20.07-21.46.15-.61.39-1.2.59-1.8V209C289.25,205.91,286.7,204.93,283.22,205Zm-3.64,56.21c0,11.65-7,18.62-18.71,18.62H105.14c-7.9,0-13.78-3.68-16.49-9.83v0c-.27-.62-.51-1.26-.73-1.93l-.09-.33c0-.16-.09-.32-.14-.49a22,22,0,0,1-.69-5.7c0-14.63,0-29.26,0-44.18,0-.28,0-.55,0-.84H279.43c.05,1,.13,1.9.13,2.8Q279.59,240.21,279.58,261.17Z"/><path d="M261.77,257.15c-4.9,0-9.8,0-14.69,0s-10,0-15,0c-3.81,0-6.36,2.39-6.31,5.73s2.52,5.57,6.17,5.59q15,0,30,0c3.81,0,6.36-2.39,6.32-5.72S265.65,257.18,261.77,257.15Z"/><path d="M206,257.16a5.65,5.65,0,1,0,5.59,5.55A5.71,5.71,0,0,0,206,257.16Z"/><path d="M86.1,215.37v-26h0q0-53.82,0-107.66c0-5.34-2-8.08-5.77-8s-5.56,2.73-5.56,7.93V203.92c-15.61,0-30.8,0-46,0-10.13,0-17.44-7.38-17.44-17.59q0-78.3,0-156.6c0-11.37,7-18.35,18.37-18.38,14.16,0,28.32,0,42.48,0,.81,0,1.62.1,2.58.17,0,5.41,0,10.59,0,15.77C74.8,31.39,77,34,80.46,34s5.62-2.6,5.63-6.72c0-6.52-.14-13,.07-19.54.11-3.49-.94-6-4-7.7H24.36c-3.25,1.18-6.7,2-9.7,3.62A27.64,27.64,0,0,0,.59,22.54C.45,23.16.2,23.75,0,24.36V190.89c.47,1.61.9,3.22,1.42,4.81a28.4,28.4,0,0,0,27.29,19.55Z"/><path d="M80.58,48.83a5.64,5.64,0,1,0,5.59,5.55A5.71,5.71,0,0,0,80.58,48.83Z"/></g></g></svg>