<svg version="1.1" xmlns="http://www.w3.org/2000/svg" xmlns:xlink="http://www.w3.org/1999/xlink" x="0px" y="0px"
	 viewBox="0 0 283.843 283.843" style="enable-background:new 0 0 283.843 283.843;" xml:space="preserve">
<g>
	<path style="fill:#7f7f7f;" d="M222.909,86.242c-5.771-46.754-32.346-85.796-80.242-86.198V0c-0.125,0-0.245,0.016-0.37,0.016
		c-0.125,0-0.245-0.016-0.37-0.016v0.044C94.031,0.446,67.455,39.488,61.685,86.242c-1.039,8.425,3.682,15.333,9.388,15.333
		c5.7,0,10.204-6.924,11.4-15.322c5.075-35.702,22.529-65.715,59.83-65.916c37.296,0.201,54.755,30.214,59.83,65.916
		c1.197,8.403,5.695,15.322,11.395,15.322C219.222,101.575,223.948,94.661,222.909,86.242z"/>
	<path style="fill:#7f7f7f;" d="M246.515,108.156c-0.174-0.201-0.348-0.397-0.533-0.598c-5.749-6.244-13.01-1.686-16.138,1.452
		c-1.463,1.469-3.758,2.567-7.37,2.567h-19.918c0,0-4.547,0.272-7.734-2.393c-3.497-2.943-9.915-7.392-18.406-7.392h-69.62
		c-8.49,0-15.186,4.079-18.281,7.158c-1.496,1.485-3.775,2.627-7.223,2.627H61.396c-3.432,0-5.744-1.246-7.288-2.85
		c-3.084-3.209-10.949-7.598-17.204-1.86c-3.291,3.035-5.863,7.762-5.863,15.131v140.355c0,0-0.326,21.49,21.169,21.49h180.033
		c0,0,20.56-0.321,20.56-19.912V137.369C252.808,128.879,252.03,114.607,246.515,108.156z M158.81,201.109
		c-2.159,4.34-5.515,12.624-5.515,19.885c0,7.261-5.309,13.152-11.852,13.152c-6.543,0-11.846-5.891-11.846-13.152
		c0-7.261-3.356-15.545-5.515-19.885c-1.267-2.551-1.985-5.417-1.985-8.469c0-10.677,8.664-19.347,19.347-19.347
		c10.688,0,19.347,8.67,19.347,19.347C160.795,195.692,160.072,198.558,158.81,201.109z"/>
</g>
<g>
</g>
<g>
</g>
<g>
</g>
<g>
</g>
<g>
</g>
<g>
</g>
<g>
</g>
<g>
</g>
<g>
</g>
<g>
</g>
<g>
</g>
<g>
</g>
<g>
</g>
<g>
</g>
<g>
</g>
</svg>
